<svg xmlns="http://www.w3.org/2000/svg" viewBox="0 0 120 120" fill="none">
  <defs>
    <radialGradient id="core" cx="50%" cy="50%" r="50%">
      <stop offset="0%" stop-color="#ff8a99"/>
      <stop offset="45%" stop-color="#e8213c"/>
      <stop offset="100%" stop-color="#b31631"/>
    </radialGradient>
    <filter id="glow" x="-80%" y="-80%" width="260%" height="260%">
      <feGaussianBlur stdDeviation="5"/>
    </filter>
  </defs>
  <g stroke="#cfd2da" stroke-linecap="round" stroke-linejoin="round">
    <path opacity="0.28" stroke-width="1" d="M60 18 L41.81 49.5 M60 18 L78.19 49.5 M23.63 39 L41.81 70.5 M23.63 39 L60 39 M23.63 81 L60 81 M23.63 81 L41.81 49.5 M60 102 L78.19 70.5 M60 102 L41.81 70.5 M96.37 81 L78.19 49.5 M96.37 81 L60 81 M96.37 39 L60 39 M96.37 39 L78.19 70.5"/>
    <path opacity="0.45" stroke-width="1.2" d="M60 18 L60 7 M23.63 39 L14.1 33.5 M23.63 81 L14.1 86.5 M60 102 L60 113 M96.37 81 L105.9 86.5 M96.37 39 L105.9 33.5"/>
    <path opacity="0.5" stroke-width="1.4" d="M60 60 L60 18 M60 60 L23.63 39 M60 60 L23.63 81 M60 60 L60 102 M60 60 L96.37 81 M60 60 L96.37 39"/>
    <path opacity="0.72" stroke-width="1.5" d="M60 18 L23.63 39 L23.63 81 L60 102 L96.37 81 L96.37 39 Z"/>
  </g>
  <g fill="#cfd2da" opacity="0.75">
    <circle cx="60" cy="7" r="1.9"/><circle cx="14.1" cy="33.5" r="1.9"/><circle cx="14.1" cy="86.5" r="1.9"/>
    <circle cx="60" cy="113" r="1.9"/><circle cx="105.9" cy="86.5" r="1.9"/><circle cx="105.9" cy="33.5" r="1.9"/>
  </g>
  <g fill="#0b0b10" stroke="#cfd2da">
    <g stroke-width="1.3">
      <circle cx="60" cy="39" r="3.2"/><circle cx="41.81" cy="49.5" r="3.2"/><circle cx="41.81" cy="70.5" r="3.2"/>
      <circle cx="60" cy="81" r="3.2"/><circle cx="78.19" cy="70.5" r="3.2"/><circle cx="78.19" cy="49.5" r="3.2"/>
    </g>
    <g stroke-width="1.4">
      <circle cx="60" cy="18" r="4.3"/><circle cx="23.63" cy="39" r="4.3"/><circle cx="23.63" cy="81" r="4.3"/>
      <circle cx="60" cy="102" r="4.3"/><circle cx="96.37" cy="81" r="4.3"/><circle cx="96.37" cy="39" r="4.3"/>
    </g>
  </g>
  <circle cx="60" cy="60" r="11" fill="#e8213c" opacity="0.55" filter="url(#glow)"/>
  <circle cx="60" cy="60" r="7" fill="url(#core)"/>
  <circle cx="57.5" cy="57.5" r="2" fill="#ffd7dd" opacity="0.9"/>
</svg>
